<?xml version="1.0" encoding="UTF-8"?>
<svg enable-background="new 0 0 100 100" viewBox="0 0 100 100" xmlns="http://www.w3.org/2000/svg">
 <path d="m30.729,57.915 17.824,21.414c.438.524.951.715 1.447.681 .496.034 1.011-.156 1.447-.681l17.824-21.414c1.1-1.319.461-3.494-1.446-3.494h-7.479v-32.386c0-1.116-.931-2.047-2.047-2.047h-16.598c-1.116,0-2.047.931-2.047,2.047v32.386h-7.479c-1.907,0-2.546,2.175-1.446,3.494z"/>
 <path d="m50 100c27.614 0 50-22.386 50-50s-22.386-50-50-50-50 22.386-50 50 22.386 50 50 50zm0-92c23.196 0 42 18.804 42 42s-18.804 42-42 42-42-18.805-42-42c0-23.196 18.805-42 42-42z"/>
</svg>
